<svg xmlns="http://www.w3.org/2000/svg" viewBox="193 204 190 190" width="600" height="600"
     style="width: 100%; height: 100%; transform: translate3d(0,0,0);" preserveAspectRatio="xMidYMid meet">
  <g style="display: block;" transform="matrix(1,0,0,1,258,366)" opacity="1">
    <g opacity="1" transform="matrix(3,0,0,3,0,0)">
      <path fill-opacity="0" stroke-miterlimit="4"
            stroke="rgb(78,69,228)" stroke-opacity="1" stroke-width="4"
            d=" M0,-6 C3.3113999366760254,-6 6,-3.3113999366760254 6,0 C6,3.3113999366760254 3.3113999366760254,6 0,6 C-3.3113999366760254,6 -6,3.3113999366760254 -6,0 C-6,-3.3113999366760254 -3.3113999366760254,-6 0,-6z"/>
    </g>
  </g>
  <g style="display: block;" transform="matrix(1,0,0,1,342,366)" opacity="1">
    <g opacity="1" transform="matrix(3,0,0,3,0,0)">
      <path fill-opacity="0" stroke-miterlimit="4"
            stroke="rgb(78,69,228)" stroke-opacity="1" stroke-width="4"
            d=" M0,-6 C3.3113999366760254,-6 6,-3.3113999366760254 6,0 C6,3.3113999366760254 3.3113999366760254,6 0,6 C-3.3113999366760254,6 -6,3.3113999366760254 -6,0 C-6,-3.3113999366760254 -3.3113999366760254,-6 0,-6z"/>
    </g>
  </g>
  <g style="display: block;" transform="matrix(1,0,0,1,288,270)" opacity="1">
    <g opacity="1" transform="matrix(3,0,0,3,0,0)">
      <path stroke-linecap="round" stroke-linejoin="round" fill-opacity="0" stroke="rgb(78,69,228)" stroke-opacity="1"
            stroke-width="4"
            d=" M22,18 C22,18 -12.5,18 -12.5,18 C-12.5,18 -14.5,10 -14.5,10 C-14.5,10 24,10 24,10 C24,10 28,-10 28,-10 C28,-10 -18.5,-10 -18.5,-10 C-18.5,-10 -20,-18 -20,-18 C-20,-18 -28,-18 -28,-18"/>
    </g>
  </g>
</svg>
